<?xml version="1.0" standalone="no"?>
<!DOCTYPE svg PUBLIC "-//W3C//DTD SVG 20010904//EN"
 "http://www.w3.org/TR/2001/REC-SVG-20010904/DTD/svg10.dtd">
<svg version="1.0" xmlns="http://www.w3.org/2000/svg"
 width="512.000000pt" height="512.000000pt" viewBox="0 0 512.000000 512.000000"
 preserveAspectRatio="xMidYMid meet">
<metadata>
Created by potrace 1.14, written by Peter Selinger 2001-2017
</metadata>
<g transform="translate(0.000000,512.000000) scale(0.100000,-0.100000)"
fill="#000000" stroke="none">
<path d="M2016 4128 c-90 -13 -177 -86 -206 -173 -6 -19 -12 -76 -13 -127 l-2
-93 -390 -1 c-368 -1 -393 -2 -436 -21 -65 -29 -113 -75 -139 -135 l-23 -53
-1 -645 c0 -629 1 -646 21 -690 11 -25 33 -58 49 -75 l28 -30 1 -450 1 -450
26 -51 c30 -57 90 -116 145 -141 35 -16 139 -17 1479 -18 1635 -2 1497 -9
1588 81 84 85 84 85 85 588 l1 438 33 42 c64 80 61 42 62 742 2 735 5 706 -78
788 -79 79 -83 80 -544 80 -216 0 -393 2 -394 5 -1 3 -2 47 -4 96 -4 147 -51
228 -160 276 -50 22 -55 22 -566 23 -284 1 -537 -2 -563 -6z m1095 -134 c52
-30 71 -73 73 -162 2 -42 1 -81 -1 -87 -4 -12 -1247 -14 -1259 -2 -14 13 -4
167 12 198 19 38 57 62 108 69 22 3 265 5 538 4 471 -1 498 -2 529 -20z m1020
-400 c18 -11 41 -32 53 -47 21 -28 21 -34 21 -665 l0 -637 -22 -31 c-46 -64
-47 -64 -628 -64 l-525 0 0 69 c0 84 -13 126 -54 169 -60 65 -64 66 -351 66
-256 1 -261 0 -302 -23 -24 -14 -55 -42 -70 -64 -24 -35 -28 -52 -31 -129 l-4
-88 -584 0 c-649 0 -638 -1 -683 66 l-25 36 0 626 c0 571 2 630 17 659 22 42
59 66 111 73 22 3 717 4 1543 4 1443 -2 1504 -3 1534 -20z m-1245 -1287 c23
-27 24 -35 24 -167 0 -131 -1 -140 -23 -166 l-24 -27 -236 0 c-307 -1 -287
-14 -287 192 1 154 5 173 49 189 12 4 123 7 247 7 l226 -1 24 -27z m-662 -318
c11 -71 63 -130 132 -151 52 -16 506 -16 545 0 64 26 128 110 129 170 l0 22
540 0 540 0 0 -399 c0 -330 -3 -404 -15 -432 -19 -44 -33 -61 -70 -85 -28 -19
-65 -19 -1445 -20 -892 0 -1426 3 -1445 9 -37 12 -72 43 -93 82 -14 26 -16 85
-17 438 l0 407 596 0 596 0 7 -41z"/>
<path d="M1083 3022 c-25 -16 -29 -65 -28 -307 1 -212 4 -256 19 -290 22 -50
60 -91 111 -118 38 -20 55 -21 362 -21 288 -1 324 1 339 16 24 24 25 64 2 85
-18 16 -46 18 -327 18 -274 0 -310 2 -334 18 -48 32 -51 45 -52 321 -1 241 -2
259 -20 272 -21 15 -53 18 -72 6z"/>
<path d="M1130 1740 c-19 -19 -20 -34 -20 -210 0 -208 5 -234 56 -282 45 -41
91 -48 321 -48 202 0 213 1 232 21 10 11 18 28 16 37 -2 9 -4 22 -4 29 -2 29
-45 35 -250 35 -163 0 -211 3 -228 14 -23 14 -23 19 -23 199 0 171 -1 186 -20
202 -28 24 -57 26 -80 3z"/>
</g>
</svg>
